<?xml version="1.0" standalone="no"?>
<!DOCTYPE svg PUBLIC "-//W3C//DTD SVG 20010904//EN"
 "http://www.w3.org/TR/2001/REC-SVG-20010904/DTD/svg10.dtd">
<svg version="1.0" xmlns="http://www.w3.org/2000/svg"
 width="700.000000pt" height="700.000000pt" viewBox="0 0 700.000000 700.000000"
 preserveAspectRatio="xMidYMid meet">
<metadata>
Created by potrace 1.11, written by Peter Selinger 2001-2013
</metadata>
<g transform="translate(0.000000,700.000000) scale(0.100000,-0.100000)"
fill="#000000" stroke="none">
<path d="M386 6985 c-188 -52 -337 -207 -375 -394 -14 -67 -14 -1442 -1 -1516
26 -138 143 -289 271 -351 121 -59 75 -57 1319 -57 630 0 1162 3 1182 7 97 16
204 73 278 148 65 66 106 138 130 230 18 69 19 110 17 798 -2 399 -6 736 -10
749 -47 164 -126 267 -265 342 -109 60 -60 57 -1332 57 -942 0 -1174 -2 -1214
-13z"/>
<path d="M4167 6981 c-160 -44 -291 -168 -349 -331 l-23 -65 0 -1625 c0 -1576
1 -1627 19 -1684 38 -113 123 -222 224 -282 54 -33 134 -63 186 -71 23 -3 559
-6 1191 -6 l1150 0 78 26 c42 15 96 39 120 54 61 38 139 124 175 191 65 121
62 29 62 1762 0 1088 -3 1594 -11 1635 -35 193 -200 363 -394 404 -34 7 -430
10 -1205 10 -1085 0 -1159 -1 -1223 -18z"/>
<path d="M497 4084 c-1 -1 -24 -4 -52 -7 -203 -23 -383 -184 -431 -386 -11
-46 -13 -342 -11 -1671 l2 -1615 22 -60 c13 -32 39 -84 60 -114 33 -51 49 -68
123 -131 35 -30 136 -76 195 -89 51 -11 2373 -11 2405 0 8 3 33 11 55 19 120
40 219 126 281 243 66 125 62 35 63 1765 1 1705 3 1650 -52 1757 -69 138 -206
245 -352 276 -46 9 -319 12 -1183 13 -618 1 -1124 0 -1125 0z"/>
<path d="M4280 2332 c-242 -25 -416 -169 -474 -392 -12 -45 -14 -185 -15 -762
-1 -612 1 -716 14 -775 41 -176 157 -308 325 -370 l75 -28 1190 0 1190 0 65
23 c149 51 266 167 323 319 22 58 22 62 24 803 3 701 2 749 -16 806 -60 198
-213 337 -409 371 -35 6 -2238 11 -2292 5z"/>
</g>
</svg>
